<svg width="40" height="40" viewBox="0 0 40 40" fill="none" xmlns="http://www.w3.org/2000/svg">
<g id="search 1">
<path id="Vector" d="M5 32.6667L15.5 22.1667C14.8333 21.3333 14.3056 20.375 13.9167 19.2917C13.5278 18.2083 13.3333 17.0556 13.3333 15.8333C13.3333 12.8056 14.3819 10.2431 16.4792 8.14583C18.5764 6.04861 21.1389 5 24.1667 5C27.1944 5 29.7569 6.04861 31.8542 8.14583C33.9514 10.2431 35 12.8056 35 15.8333C35 18.8611 33.9514 21.4236 31.8542 23.5208C29.7569 25.6181 27.1944 26.6667 24.1667 26.6667C22.9444 26.6667 21.7917 26.4722 20.7083 26.0833C19.625 25.6944 18.6667 25.1667 17.8333 24.5L7.33333 35L5 32.6667ZM16.6667 15.8333C16.6667 17.9167 17.3958 19.6875 18.8542 21.1458C20.3125 22.6042 22.0833 23.3333 24.1667 23.3333C26.25 23.3333 28.0208 22.6042 29.4792 21.1458C30.9375 19.6875 31.6667 17.9167 31.6667 15.8333C31.6667 13.75 30.9375 11.9792 29.4792 10.5208C28.0208 9.0625 26.25 8.33333 24.1667 8.33333C22.0833 8.33333 20.3125 9.0625 18.8542 10.5208C17.3958 11.9792 16.6667 13.75 16.6667 15.8333Z" fill="#E8EAED"/>
</g>
</svg>
